<svg xmlns="http://www.w3.org/2000/svg" x="0px" y="0px"
width="30" height="30"
viewBox="0 0 172 172"
style=" fill:#000000;"><g fill="none" fill-rule="nonzero" stroke="none" stroke-width="1" stroke-linecap="butt" stroke-linejoin="miter" stroke-miterlimit="10" stroke-dasharray="" stroke-dashoffset="0" font-family="none" font-weight="none" font-size="none" text-anchor="none" style="mix-blend-mode: normal"><path d="M0,172v-172h172v172z" fill="none"></path><g><path d="M99.61667,142.25833c-0.35833,0 -0.71667,0 -1.43333,-0.35833c-0.71667,-0.35833 -1.43333,-1.075 -2.15,-1.79167l-13.25833,-30.81667l-16.125,15.05c-0.35833,0.71667 -1.075,1.075 -2.15,1.075c-0.35833,0 -1.075,0 -1.43333,-0.35833c-1.075,-0.35833 -2.15,-1.79167 -2.15,-3.225v-78.83333c0,-1.43333 0.71667,-2.86667 2.15,-3.225c0.35833,-0.35833 1.075,-0.35833 1.43333,-0.35833c0.71667,0 1.79167,0.35833 2.50833,1.075l57.33333,53.75c1.075,1.075 1.43333,2.50833 1.075,3.94167c-0.35833,1.43333 -1.79167,2.15 -3.225,2.50833l-22.575,2.15l13.975,30.45833c0.35833,0.71667 0.35833,1.79167 0,2.86667c-0.35833,0.71667 -1.075,1.79167 -1.79167,2.15l-10.39167,4.65833c-0.71667,-0.71667 -1.43333,-0.71667 -1.79167,-0.71667z" fill="#fd8b7a"></path><path d="M64.5,43l57.33333,53.75l-27.59167,2.50833l16.125,35.11667l-10.39167,4.65833l-15.40833,-35.475l-20.06667,18.275v-78.83333M64.5,35.83333c-1.075,0 -1.79167,0.35833 -2.86667,0.71667c-2.50833,1.075 -4.3,3.58333 -4.3,6.45v78.83333c0,2.86667 1.79167,5.375 4.3,6.45c1.075,0.71667 2.15,0.71667 2.86667,0.71667c1.79167,0 3.58333,-0.71667 5.01667,-1.79167l12.18333,-11.46667l11.10833,26.15833c0.71667,1.79167 2.15,3.225 3.94167,3.94167c0.71667,0.35833 1.79167,0.35833 2.50833,0.35833c1.075,0 1.79167,-0.35833 2.86667,-0.71667l10.39167,-4.65833c1.79167,-0.71667 3.225,-2.15 3.94167,-3.94167c0.71667,-1.79167 0.71667,-3.94167 0,-5.375l-11.825,-25.8l17.55833,-1.43333c2.86667,-0.35833 5.375,-2.15 6.09167,-4.65833c1.075,-2.50833 0.35833,-5.73333 -1.79167,-7.525l-57.33333,-53.75c-1.075,-1.79167 -2.86667,-2.50833 -4.65833,-2.50833z" fill="#212121"></path></g></g></svg>